<svg id="Layer_1" enable-background="new 0 0 512 512" height="512" viewBox="0 0 512 512" width="512" xmlns="http://www.w3.org/2000/svg"><path d="m478.342 302.69c-4.418 0-8 3.582-8 8v2.62c0 4.418 3.582 8 8 8s8-3.582 8-8v-2.62c0-4.419-3.582-8-8-8z"/><path d="m478.515 334.823c-4.414-.249-8.19 3.123-8.44 7.534-4.888 86.155-76.382 153.643-162.763 153.643h-102.619c-89.896 0-163.03-73.135-163.03-163.03v-65.682c27.973 26.33 74.032 13.173 83.837-24.012 19.818 23.071 53.124 27.166 77.744 10.837 14.505 11.525 32.835 18.436 52.759 18.436h51.545c-50.46 25.142-85.205 77.279-85.205 137.38 0 4.418 3.582 8 8 8s8-3.582 8-8c0-75.752 61.628-137.38 137.38-137.38 4.418 0 8-3.582 8-8s-3.582-8-8-8h-119.72c-38.03 0-68.97-30.936-68.97-68.96 0-14.485 11.722-26.21 26.21-26.21h158.46c18.255 0 36.453 8.354 48.872 24.912 2.026 2.78-.276-.807 35.734 57.71 7.156 11.631 11.636 24.406 13.313 37.97.542 4.385 4.52 7.498 8.922 6.958 4.385-.542 7.499-4.537 6.957-8.921-1.961-15.856-7.198-30.792-15.565-44.391-35.92-58.371-33.455-54.429-34.9-56.566 0-5.809 0-112.034 0-119.741 0-59.632-79.941-82.539-110.644-29.733-10.282-17.667-29.413-29.577-51.286-29.577-31.049 0-56.084 23.67-59.017 53.365-36.283-39.37-100.577-14.161-102.848 37.482-32.092-30.321-85.583-7.799-85.583 36.877 0 137.494.005 128.541.005 205.246 0 98.717 80.313 179.03 179.03 179.03h102.619c94.858 0 173.368-74.118 178.737-168.737.25-4.411-3.123-8.19-7.534-8.44zm-133.409-306.14c27.131-27.163 73.931-7.805 73.931 30.627v102.565c-13.333-10.483-30.03-16.496-47.334-16.496h-39.286v-86.068c0-11.577 4.503-22.452 12.689-30.628zm-115.311 30.628c0-23.925 19.353-43.311 43.311-43.311 23.882 0 43.311 19.429 43.311 43.311v86.069h-86.621c-.001-14.146-.001-65.298-.001-86.069zm-102.62 34.206c0-23.928 19.354-43.31 43.31-43.31 23.882 0 43.311 19.429 43.311 43.31v51.863c-24.894 0-42.763 19.687-42.763 42.21 0 20.984 7.664 40.201 20.319 55.04-28.854 15.871-64.176-5.128-64.176-37.941-.001-12.732-.001-99.96-.001-111.172zm-50.758-.552c19.166 0 34.759 15.593 34.759 34.759v102.621c0 19.166-15.593 34.759-34.759 34.759-19.102 0-34.649-15.489-34.754-34.566 0-54.736-.005-26.503-.005-102.813 0-19.167 15.592-34.76 34.759-34.76z"/></svg>